<?xml version="1.0" encoding="utf-8"?>
<!-- Generator: Adobe Illustrator 16.0.0, SVG Export Plug-In . SVG Version: 6.00 Build 0)  -->
<!DOCTYPE svg PUBLIC "-//W3C//DTD SVG 1.1//EN" "http://www.w3.org/Graphics/SVG/1.1/DTD/svg11.dtd">
<svg version="1.1" id="Layer_1" xmlns="http://www.w3.org/2000/svg" xmlns:xlink="http://www.w3.org/1999/xlink" x="0px" y="0px"
	 width="100px" height="100px" viewBox="0 0 100 100" enable-background="new 0 0 100 100" xml:space="preserve">
<path fill="#333333" d="M77.768,61.787c0-9.499,0-46.424,0-46.424h-2.565H23.144l-5.638,3.333v66.94h57.695v-5.972h8.293
	C83.494,79.665,77.768,75.066,77.768,61.787z M73.973,51.76h-9.877V41.19h9.877V51.76z M49.8,28.995v10.57H38.756v-10.57H49.8z
	 M51.426,28.995h11.045v10.57H51.426V28.995z M26.938,28.995H37.13v10.57H26.938V28.995z M26.938,41.191H37.13V51.76H26.938V41.191z
	 M26.938,53.386H37.13v8.403c0,0.758,0.016,1.479,0.045,2.167H26.938V53.386z M38.756,61.789v-8.403H49.8v8.403
	c0,0.758,0.016,1.479,0.045,2.167H38.803C38.772,63.271,38.756,62.551,38.756,61.789z M38.756,51.76V41.19H49.8v10.57H38.756z
	 M51.426,41.191h11.045V51.76H51.426V41.191z M73.973,39.564h-9.877V28.995h9.877V39.564z M37.273,65.582
	c0.429,5.374,1.755,8.488,3.077,10.289H29.748c-0.258-0.229-0.69-0.713-1.143-1.654c-0.683-1.42-1.482-4.045-1.637-8.635H37.273z
	 M42.518,75.871c-1.275-1.172-3.09-3.932-3.614-10.289h11.04c0.429,5.374,1.756,8.488,3.078,10.289H42.518z M55.188,75.871
	c-1.274-1.172-3.09-3.932-3.612-10.289h11.038c0.43,5.374,1.757,8.488,3.078,10.289H55.188z M51.473,63.956
	c-0.029-0.687-0.047-1.405-0.047-2.167v-8.403h11.045v8.403c0,0.758,0.016,1.479,0.045,2.167H51.473z M64.096,61.789v-8.403h9.877
	v8.401v1.628c0,0.183,0.002,0.36,0.004,0.541h-9.834C64.111,63.271,64.096,62.551,64.096,61.789z M71.407,81.843H21.3V20.861
	l1.844-1.09c0,10.225,0,35.37,0,44.187c0,14.636,5.728,15.708,5.728,15.708h42.537L71.407,81.843L71.407,81.843z M75.201,75.871
	h-3.794h-3.55c-1.275-1.172-3.09-3.932-3.613-10.289h9.775c0.172,3.999,0.828,7.443,1.965,10.289H75.201z"/>
</svg>
