<?xml version="1.0" encoding="utf-8"?>
<!-- Generator: Adobe Illustrator 16.0.0, SVG Export Plug-In . SVG Version: 6.00 Build 0)  -->
<!DOCTYPE svg PUBLIC "-//W3C//DTD SVG 1.1//EN" "http://www.w3.org/Graphics/SVG/1.1/DTD/svg11.dtd">
<svg version="1.1" id="Layer_1" xmlns="http://www.w3.org/2000/svg" xmlns:xlink="http://www.w3.org/1999/xlink" x="0px" y="0px"
	 width="200px" height="200px" viewBox="0 0 200 200" enable-background="new 0 0 200 200" xml:space="preserve">
<path fill="#333333" d="M134.417,28.439V69.28c11.067,9.633,18.083,23.806,18.083,39.595c0,28.949-23.551,52.5-52.5,52.5
	c-28.948,0-52.5-23.551-52.5-52.5c0-15.789,7.017-29.962,18.083-39.594V28.439C34.399,41.833,12.5,72.841,12.5,108.875
	c0,48.248,39.252,87.5,87.5,87.5c48.248,0,87.5-39.252,87.5-87.5C187.5,72.841,165.602,41.833,134.417,28.439z"/>
<rect x="82.501" y="5.625" fill="#333333" width="35" height="110.875"/>
</svg>
