<?xml version="1.0" encoding="utf-8"?>
<!-- Generator: Adobe Illustrator 16.0.0, SVG Export Plug-In . SVG Version: 6.00 Build 0)  -->
<!DOCTYPE svg PUBLIC "-//W3C//DTD SVG 1.1//EN" "http://www.w3.org/Graphics/SVG/1.1/DTD/svg11.dtd">
<svg version="1.1" id="Layer_1" xmlns="http://www.w3.org/2000/svg" xmlns:xlink="http://www.w3.org/1999/xlink" x="0px" y="0px"
	 width="100px" height="100px" viewBox="0 0 100 100" enable-background="new 0 0 100 100" xml:space="preserve">
<path fill="#333333" d="M8.817,87.5v-7.609c0,0,0.496-4.672,6.121-6.121c0,0,9.061-3.308,16.156-6.396
	c3.67-1.597,4.459-2.556,8.161-4.19c0,0,0.387-1.9,0.248-3.031h2.895c0,0,0.662,0.385,0-4.082c0,0-3.528-0.937-3.693-8.049
	c0,0-2.65,0.892-2.813-3.418c-0.11-2.923-2.371-5.46,0.883-7.555L35.12,32.58c0,0-3.308-18.03,6.203-15.383
	c-4.012-4.797,22.745-9.593,24.481,5.625c0,0,1.24,8.216,0,13.84c0,0,3.908-0.452,1.295,7.059c0,0-1.433,5.403-3.639,4.191
	c0,0,0.359,6.836-3.113,7.996c0,0,0.246,3.64,0.246,3.887l3.311,0.495c0,0-0.497,2.979,0.084,3.31c0,0,3.922,2.688,8.6,3.89
	c9.016,2.312,19.686,6.284,19.686,9.759c0,0,0.91,4.631,0.91,10.255H8.817V87.5z"/>
</svg>
